HIERARCHY
ROOT Hips
{
	OFFSET 0.00000 0.00000 0.00000
	CHANNELS 6 Xposition Yposition Zposition Zrotation Yrotation Xrotation 
	JOINT LHipJoint
	{
		OFFSET 0 0 0
		CHANNELS 3 Zrotation Yrotation Xrotation
		JOINT LeftUpLeg
		{
			OFFSET 1.53794 -1.55850 0.93568
			CHANNELS 3 Zrotation Yrotation Xrotation
			JOINT LeftLeg
			{
				OFFSET 2.28545 -6.27922 0.00000
				CHANNELS 3 Zrotation Yrotation Xrotation
				JOINT LeftFoot
				{
					OFFSET 2.37329 -6.52057 0.00000
					CHANNELS 3 Zrotation Yrotation Xrotation
					JOINT LeftToeBase
					{
						OFFSET 0.14846 -0.40788 2.09160
						CHANNELS 3 Zrotation Yrotation Xrotation
						End Site
						{
							OFFSET 0.00000 -0.00000 1.07536
						}
					}
				}
			}
		}
	}
	JOINT RHipJoint
	{
		OFFSET 0 0 0
		CHANNELS 3 Zrotation Yrotation Xrotation
		JOINT RightUpLeg
		{
			OFFSET -1.78290 -1.55850 0.93568
			CHANNELS 3 Zrotation Yrotation Xrotation
			JOINT RightLeg
			{
				OFFSET -2.24144 -6.15831 0.00000
				CHANNELS 3 Zrotation Yrotation Xrotation
				JOINT RightFoot
				{
					OFFSET -2.35091 -6.45907 0.00000
					CHANNELS 3 Zrotation Yrotation Xrotation
					JOINT RightToeBase
					{
						OFFSET -0.14428 -0.39641 2.07944
						CHANNELS 3 Zrotation Yrotation Xrotation
						End Site
						{
							OFFSET -0.00000 -0.00000 1.06864
						}
					}
				}
			}
		}
	}
	JOINT LowerBack
	{
		OFFSET 0 0 0
		CHANNELS 3 Zrotation Yrotation Xrotation
		JOINT Spine
		{
			OFFSET -0.08841 2.11430 -0.15818
			CHANNELS 3 Zrotation Yrotation Xrotation
			JOINT Spine1
			{
				OFFSET -0.00033 2.12605 -0.08097
				CHANNELS 3 Zrotation Yrotation Xrotation
				JOINT Neck
				{
					OFFSET 0 0 0
					CHANNELS 3 Zrotation Yrotation Xrotation
					JOINT Neck1
					{
						OFFSET 0.04431 1.59447 0.43193
						CHANNELS 3 Zrotation Yrotation Xrotation
						JOINT Head
						{
							OFFSET 0.00455 1.62017 -0.58852
							CHANNELS 3 Zrotation Yrotation Xrotation
							End Site
							{
								OFFSET -0.00920 1.72955 -0.25850
							}
						}
					}
				}
				JOINT LeftShoulder
				{
					OFFSET 0 0 0
					CHANNELS 3 Zrotation Yrotation Xrotation
					JOINT LeftArm
					{
						OFFSET 2.86490 1.49927 -0.33774
						CHANNELS 3 Zrotation Yrotation Xrotation
						JOINT LeftForeArm
						{
							OFFSET 4.87408 -0.00000 0.00000
							CHANNELS 3 Zrotation Yrotation Xrotation
							JOINT LeftHand
							{
								OFFSET 2.76729 -0.00000 0.00000
								CHANNELS 3 Zrotation Yrotation Xrotation
								JOINT LeftFingerBase
								{
									OFFSET 0 0 0
									CHANNELS 3 Zrotation Yrotation Xrotation
									JOINT LeftHandIndex1
									{
										OFFSET 0.98922 -0.00000 0.00000
										CHANNELS 3 Zrotation Yrotation Xrotation
										End Site
										{
											OFFSET 0.79753 -0.00000 0.00000
										}
									}
								}
								JOINT LThumb
								{
									OFFSET 0 0 0
									CHANNELS 3 Zrotation Yrotation Xrotation
									End Site
									{
										OFFSET 0.80972 -0.00000 0.80972
									}
								}
							}
						}
					}
				}
				JOINT RightShoulder
				{
					OFFSET 0 0 0
					CHANNELS 3 Zrotation Yrotation Xrotation
					JOINT RightArm
					{
						OFFSET -2.94414 1.45463 -0.25291
						CHANNELS 3 Zrotation Yrotation Xrotation
						JOINT RightForeArm
						{
							OFFSET -4.71404 -0.00000 0.00000
							CHANNELS 3 Zrotation Yrotation Xrotation
							JOINT RightHand
							{
								OFFSET -2.83468 -0.00000 0.00000
								CHANNELS 3 Zrotation Yrotation Xrotation
								JOINT RightFingerBase
								{
									OFFSET 0 0 0
									CHANNELS 3 Zrotation Yrotation Xrotation
									JOINT RightHandIndex1
									{
										OFFSET -0.86820 -0.00000 0.00000
										CHANNELS 3 Zrotation Yrotation Xrotation
										End Site
										{
											OFFSET -0.69996 -0.00000 0.00000
										}
									}
								}
								JOINT RThumb
								{
									OFFSET 0 0 0
									CHANNELS 3 Zrotation Yrotation Xrotation
									End Site
									{
										OFFSET -0.71065 -0.00000 0.71065
									}
								}
							}
						}
					}
				}
			}
		}
	}
}
MOTION
Frames: 8
Frame Time: 0.05
0.00 0.00 0.00 175.1430 -30.3843 -170.5750 0.0000 0.0000 0.0000 -2.1837 4.8943 -3.6188 15.1389 19.4238 75.6549 1.8709 9.9339 24.5570 0.6482 5.1502 14.3373 0.0000 0.0000 0.0000 -18.5050 18.9254 -48.3460 -3.0655 -10.8004 31.6096 0.2359 -27.1744 17.7542 -0.5373 4.6966 -13.0453 -9.4241 -8.8596 4.7508 0.9837 -12.3165 2.8923 6.2331 -6.4478 2.5870 -1.2041 2.6257 -28.9948 3.2094 -4.2881 47.2102 -0.0169 -3.0664 29.3868 0.0000 0.0000 0.0000 -16.5035 -10.3339 32.7630 85.0646 -59.9078 -55.7271 -0.0000 -0.0000 19.2638 16.6971 3.7204 1.1150 -7.1250 0.0000 -0.0000 -8.1246 33.7799 2.2549 0.0000 0.0000 0.0000 41.9097 -41.2735 -7.5833 -33.3260 43.5791 -13.6463 0.0000 0.0000 6.4872 -8.2329 -8.2911 1.1953 7.1250 -0.0000 -0.0000 15.8703 -37.8998 2.8610
0.00 0.00 0.00 173.0480 -32.3778 -170.8050 0.0000 0.0000 0.0000 4.0977 2.1873 -5.6064 22.1989 19.8837 96.4411 0.9895 10.5198 18.1443 0.7399 5.4951 15.3262 0.0000 0.0000 0.0000 -14.5164 18.6460 -32.9214 -0.4754 -4.4217 12.2662 -0.0266 -33.6767 24.0577 -0.2737 3.3649 -9.2964 -12.3932 -8.5676 3.5536 -0.0894 -11.8836 2.5815 6.4972 -6.2897 3.2276 -2.0941 2.3658 -27.5389 4.2959 -6.0293 48.1903 0.2096 -3.9622 30.6478 0.0000 0.0000 0.0000 -14.3070 -3.2654 37.0789 88.5354 -59.9919 -58.7317 -0.0000 -0.0000 18.8653 16.6375 3.0994 0.9256 -7.1250 0.0000 -0.0000 -8.1034 33.1365 2.3763 0.0000 0.0000 0.0000 46.5775 -46.1116 -10.2855 -33.2159 43.4953 -13.5704 0.0000 0.0000 5.7286 -7.2417 -7.8166 0.9901 7.1250 -0.0000 -0.0000 16.5783 -37.3733 3.2195
0.00 0.00 0.00 171.6880 -34.1790 -170.6790 0.0000 0.0000 0.0000 14.7609 -3.3931 -8.1565 28.5521 18.1474 115.7723 0.3410 4.5010 10.4046 0.7026 5.3575 14.9311 0.0000 0.0000 0.0000 -9.7569 17.9745 -20.5076 0.0000 0.0000 -0.0000 1.3068 -41.2471 24.2911 -0.0420 1.3223 -3.6362 -14.1870 -7.5405 1.5830 -1.6494 -10.2983 2.0667 5.6894 -5.5093 3.4694 -3.3092 1.3470 -26.4201 5.8772 -8.7590 48.4941 0.5872 -5.1087 31.7166 -0.0000 0.0000 0.0000 -9.6814 4.9676 40.9738 91.4508 -59.9920 -61.2564 -0.0000 -0.0000 18.8844 16.6111 1.7896 0.5338 -7.1250 0.0000 -0.0000 -7.9895 31.7827 2.6056 -0.0000 0.0000 0.0000 56.2991 -53.7070 -12.5287 -36.0923 45.5765 -15.5883 0.0000 0.0000 4.9625 -6.0494 -6.5303 0.6905 7.1250 -0.0000 -0.0000 17.2548 -36.0604 3.9387
0.00 0.00 0.00 168.9630 -36.4292 -169.7800 0.0000 0.0000 0.0000 22.2964 -19.9844 -12.7326 33.4865 14.9082 132.9906 -0.0186 2.7133 -2.2958 0.3124 3.5929 9.9342 0.0000 0.0000 0.0000 -5.9746 18.3516 -12.3759 0.0000 -0.0000 0.0000 -2.5639 -35.7318 36.0569 -0.1039 2.0786 -5.7231 -16.0938 -5.7392 0.4353 -3.3808 -7.7847 2.2696 4.9478 -4.3642 3.8098 -5.1810 -0.3814 -26.5568 6.8536 -10.7030 48.1130 1.0574 -5.9117 32.3409 -0.0000 -0.0000 0.0000 -9.7303 14.5828 40.7201 91.4965 -59.9915 -61.2960 -0.0000 -0.0000 17.5289 16.5807 3.0044 0.8941 -7.1250 0.0000 -0.0000 -8.1389 33.0366 2.4067 -0.0000 -0.0000 0.0000 73.2087 -59.8692 -13.5414 -47.3468 51.8677 -24.0709 0.0000 0.0000 3.9777 -4.7381 -4.2287 0.3502 7.1250 -0.0000 -0.0000 17.8001 -33.7874 5.1061
0.00 0.00 0.00 167.8100 -37.5524 -168.8490 0.0000 0.0000 0.0000 22.3517 -28.4577 -15.8534 34.6488 13.7687 137.6812 -0.0886 5.8655 -4.8795 0.1667 2.6306 7.2518 0.0000 0.0000 0.0000 -5.3682 20.6847 -15.6709 -0.5014 -4.5396 12.5998 1.6082 -40.9723 22.7593 -0.0752 -1.7685 4.8662 -16.2309 -5.0712 0.3301 -3.8052 -6.8889 2.4406 4.6338 -3.9450 3.8242 -5.7253 -1.2452 -26.9531 6.7216 -10.9912 47.6629 1.0429 -5.9336 31.8322 -0.0000 -0.0000 0.0000 -13.1588 16.4835 39.9048 91.1389 -59.9951 -60.9863 -0.0000 -0.0000 17.0001 16.7274 3.5220 1.0577 -7.1250 0.0000 -0.0000 -8.0775 33.5761 2.2819 -0.0000 -0.0000 0.0000 79.3688 -59.0681 -13.5288 -52.0887 53.8040 -27.8511 0.0000 0.0000 3.9365 -4.6725 -3.9266 0.3207 7.1250 -0.0000 -0.0000 17.7887 -33.4958 5.2346
0.00 0.00 0.00 168.2500 -38.7415 -169.4400 0.0000 0.0000 0.0000 22.9388 -38.7162 -21.4515 35.7282 12.5136 142.4262 -0.3291 10.2967 -5.8937 0.1782 2.7190 7.4973 0.0000 0.0000 0.0000 -2.1130 19.1063 -21.0813 -2.8732 -10.4870 30.5685 1.3068 -25.4410 7.8661 -0.4195 4.1574 -11.5198 -14.0042 -3.9064 1.9503 -3.9492 -5.6070 2.8818 3.5391 -3.2230 2.8653 -6.5864 -2.6077 -27.4710 6.7505 -11.4505 46.6471 1.1781 -5.9331 30.3962 -0.0000 -0.0000 0.0000 -20.9153 17.2977 39.1485 89.9024 -60.0000 -59.9155 -0.0000 -0.0000 19.2359 17.2270 4.1005 1.2701 -7.1250 0.0000 -0.0000 -7.7366 34.1935 2.0673 -0.0000 -0.0000 0.0000 82.4325 -53.6450 -7.8832 -54.3012 54.5895 -29.6456 0.0000 0.0000 4.1289 -4.7958 -3.7328 0.3130 7.1250 -0.0000 -0.0000 17.6519 -33.3163 5.2714
0.00 0.00 0.00 174.0860 -33.0535 -175.7730 0.0000 0.0000 0.0000 18.5173 -30.3814 -37.5719 35.2610 13.0837 140.3174 -0.9140 17.2566 -11.4090 0.2081 2.9372 8.1039 0.0000 0.0000 0.0000 7.2788 19.5289 -25.1209 -7.1710 -15.4742 49.5180 0.5003 -12.7433 -7.7901 -1.9261 8.7104 -24.8934 -5.1817 -1.4549 8.4717 -3.0554 -2.7225 4.3341 -0.0230 -1.5655 -0.1705 -5.8925 -3.0488 -29.4348 5.0947 -9.3026 44.7862 0.8002 -4.7616 27.5271 0.0000 0.0000 0.0000 -43.3342 19.5135 40.6918 81.6427 -59.7344 -52.7688 -0.0000 -0.0000 18.7434 18.3684 5.2851 1.7518 -7.1250 0.0000 -0.0000 -6.9346 35.4766 1.6324 0.0000 0.0000 0.0000 71.3524 -20.9250 25.5253 -43.4647 49.9938 -21.0560 0.0000 0.0000 41.5719 -56.7105 -58.9766 52.5401 7.1250 -0.0000 -0.0000 176.4840 78.2740 177.2714
0.00 0.00 0.00 174.0690 -28.0116 -173.9590 0.0000 0.0000 0.0000 1.5302 -29.5088 -41.6886 31.1381 16.7180 124.3887 -1.2980 20.0806 -12.0002 0.0536 1.4935 4.1079 0.0000 0.0000 0.0000 8.5885 22.2147 -25.8579 -7.7440 -15.9277 51.6352 0.3238 -12.8852 -13.3699 -1.6880 8.1836 -23.2731 -3.2279 -0.0844 8.2785 -2.9555 -0.7300 4.2147 -1.1740 -0.5319 -0.2847 -5.2406 -2.7653 -29.7542 4.1530 -8.4263 44.6353 0.3919 -4.3846 27.0704 -0.0000 -0.0000 0.0000 -52.1423 16.1734 46.9199 76.7440 -59.3255 -48.5460 -0.0000 -0.0000 22.3286 18.3902 5.0923 1.6903 -7.1250 0.0000 -0.0000 -6.8945 35.2762 1.6567 -0.0000 -0.0000 0.0000 73.2179 -6.9885 23.5189 -39.8952 48.0077 -18.3613 0.0000 0.0000 89.1951 -21.3795 -43.8973 15.1865 7.1250 -0.0000 -0.0000 29.5221 -74.1917 -20.7990
